<?xml version="1.0" standalone="no"?>
<!DOCTYPE svg PUBLIC "-//W3C//DTD SVG 20010904//EN"
 "http://www.w3.org/TR/2001/REC-SVG-20010904/DTD/svg10.dtd">
<svg version="1.0" xmlns="http://www.w3.org/2000/svg"
 width="460.000000pt" height="460.000000pt" viewBox="0 0 460.000000 460.000000"
 preserveAspectRatio="xMidYMid meet">
<metadata>
Created by potrace 1.14, written by Peter Selinger 2001-2017
</metadata>
<g transform="translate(0.000000,460.000000) scale(0.100000,-0.100000)"
fill="#000000" stroke="none">
<path d="M2118 4595 c-2 -2 -32 -6 -68 -9 -36 -3 -76 -8 -90 -11 -14 -3 -38
-7 -55 -9 -254 -35 -644 -190 -863 -342 -35 -24 -67 -44 -72 -44 -4 0 -10 -3
-12 -7 -1 -5 -32 -30 -68 -58 -110 -84 -287 -254 -355 -340 -16 -21 -34 -43
-40 -49 -25 -27 -95 -126 -95 -135 0 -5 -4 -11 -8 -13 -19 -8 -135 -214 -195
-348 -71 -158 -141 -390 -163 -540 -2 -19 -7 -46 -10 -59 -12 -55 -18 -166
-18 -326 -1 -185 6 -281 30 -405 3 -14 9 -47 14 -75 5 -27 14 -66 19 -85 5
-19 13 -46 16 -60 15 -56 58 -186 68 -205 6 -11 12 -26 13 -33 1 -7 32 -74 68
-148 60 -124 198 -347 260 -419 14 -16 43 -50 63 -75 157 -185 404 -389 609
-501 288 -158 527 -236 869 -284 87 -12 483 -13 532 -2 11 3 43 9 70 13 26 3
57 8 68 10 11 3 35 7 54 10 18 3 88 21 155 40 137 39 131 37 171 53 17 6 44
17 60 23 86 32 329 151 345 169 3 3 23 16 45 29 22 13 45 28 50 32 6 4 49 37
97 72 48 36 104 80 125 98 36 31 219 216 246 248 93 109 213 288 276 410 24
47 47 90 51 95 33 47 130 334 165 490 22 98 24 106 31 161 3 27 8 60 10 74 9
50 11 397 4 475 -8 73 -11 96 -26 190 -5 30 -33 152 -53 230 -27 105 -93 272
-164 410 -22 44 -45 90 -51 102 -6 13 -14 23 -18 23 -5 0 -8 5 -8 10 0 24
-158 244 -244 340 -76 84 -206 208 -283 271 -76 61 -269 191 -328 221 -16 8
-58 29 -91 46 -34 18 -67 32 -73 32 -6 0 -11 5 -11 12 0 6 -3 8 -7 5 -3 -4
-11 -3 -17 1 -6 5 -33 17 -61 27 -27 10 -54 22 -60 26 -5 5 -19 9 -30 9 -12 0
-25 3 -29 7 -3 4 -13 8 -21 9 -8 1 -38 9 -67 18 -29 9 -66 21 -83 26 -33 9
-169 37 -225 45 -19 3 -53 8 -75 11 -43 6 -441 14 -447 9z"/>
</g>
</svg>
